<?xml version="1.0" standalone="no"?>
<!DOCTYPE svg PUBLIC "-//W3C//DTD SVG 20010904//EN"
 "http://www.w3.org/TR/2001/REC-SVG-20010904/DTD/svg10.dtd">
<svg version="1.0" xmlns="http://www.w3.org/2000/svg"
 width="1280.000000pt" height="647.000000pt" viewBox="0 0 1280.000000 647.000000"
 preserveAspectRatio="xMidYMid meet">

<g transform="translate(0.000000,647.000000) scale(0.100000,-0.100000)"
fill="#000000" stroke="none">
<path d="M9422 6425 c-149 -27 -524 -192 -638 -280 -96 -75 -212 -194 -223
-228 -19 -62 -22 -213 -6 -317 8 -55 19 -158 24 -228 6 -86 17 -152 34 -204
13 -42 22 -80 18 -86 -3 -5 -17 -13 -31 -17 -14 -4 -31 -12 -37 -17 -19 -15
-16 -59 7 -93 11 -16 27 -55 36 -85 9 -30 31 -91 49 -135 30 -76 33 -89 39
-245 10 -263 34 -378 109 -527 28 -54 121 -183 142 -195 6 -4 56 -54 109 -112
90 -97 96 -107 85 -128 -17 -32 -110 -151 -126 -161 -7 -4 -13 -13 -13 -19 0
-6 -12 -25 -27 -43 -16 -18 -36 -45 -46 -59 -14 -20 -26 -26 -56 -26 -29 0
-48 -9 -89 -42 -28 -24 -90 -70 -137 -102 -68 -47 -109 -87 -190 -183 -178
-214 -228 -296 -446 -733 -118 -235 -126 -255 -110 -267 10 -7 28 -35 40 -63
12 -27 24 -50 26 -50 9 0 65 119 70 151 7 37 114 244 149 287 27 33 216 405
216 425 0 21 120 161 141 165 10 2 20 15 24 31 5 25 83 107 214 226 l44 40 -9
-30 c-5 -16 -8 -73 -9 -125 0 -93 -1 -97 -36 -145 -20 -28 -59 -99 -88 -160
-29 -60 -72 -144 -96 -186 -24 -42 -60 -118 -81 -170 -20 -52 -59 -141 -86
-199 -103 -219 -164 -363 -253 -600 -51 -135 -132 -333 -180 -440 -162 -363
-188 -455 -251 -880 -13 -91 -24 -166 -24 -168 0 -1 239 -1 532 0 l532 3 17
65 c241 931 229 898 515 1492 68 141 124 260 124 263 0 9 147 302 275 545 105
201 171 315 367 632 32 51 90 154 129 228 40 74 104 181 143 238 115 166 176
266 176 287 0 27 -58 112 -109 160 -38 36 -41 43 -41 93 0 30 9 95 21 144 20
85 22 89 59 108 23 12 45 34 58 59 l21 39 -24 6 c-41 10 -74 103 -44 122 6 3
9 19 5 35 -5 26 -3 29 19 29 14 0 25 4 25 8 0 4 16 24 35 45 63 67 58 132 -14
181 -42 28 -43 30 -37 70 8 50 29 83 61 98 20 9 29 8 45 -7 11 -10 20 -28 20
-41 0 -13 8 -39 17 -59 16 -34 16 -39 0 -84 -9 -27 -17 -63 -17 -80 0 -18 -5
-41 -10 -52 -6 -11 -7 -19 -1 -19 13 0 84 198 89 251 5 54 -17 110 -52 128
-32 18 -97 -11 -141 -62 l-35 -41 0 36 c0 29 8 42 46 76 25 23 53 42 62 42 13
0 14 2 4 9 -15 9 -10 55 22 199 19 85 24 269 12 452 -8 118 -11 131 -52 225
-25 55 -53 116 -63 135 -26 51 -86 78 -203 90 -124 13 -169 34 -237 111 -29
33 -70 72 -91 85 -45 30 -220 68 -356 79 -49 4 -96 8 -104 10 -8 2 -48 -3 -88
-10z m503 -626 c6 -4 24 -8 40 -10 31 -4 95 -60 95 -85 0 -7 -7 -43 -16 -81
-16 -70 -15 -126 5 -201 16 -62 28 -78 113 -160 45 -44 83 -91 92 -114 29 -70
28 -70 -83 -66 -91 3 -102 5 -128 29 -49 45 -138 88 -208 99 -36 6 -70 8 -75
5 -19 -12 -295 -8 -318 4 -32 17 -121 -2 -159 -35 -19 -17 -36 -23 -54 -20
-36 7 -146 74 -169 103 -22 28 -46 25 -97 -13 -17 -13 -37 -24 -43 -24 -6 0
-8 -4 -5 -10 3 -5 -2 -10 -12 -10 -11 0 -46 -16 -78 -35 -43 -26 -60 -32 -66
-23 -8 12 14 75 32 92 5 6 9 17 9 26 0 19 35 55 53 55 7 0 30 10 52 21 38 19
145 27 161 12 3 -4 25 -1 49 7 24 7 46 11 48 9 6 -6 180 -11 200 -6 13 3 18
12 14 27 -3 16 0 22 10 18 7 -3 13 0 13 6 0 6 5 11 10 11 21 0 62 48 63 74 1
14 6 26 10 26 5 0 2 6 -5 13 -24 22 -59 38 -68 32 -6 -4 -10 1 -10 10 0 12 -5
15 -16 11 -14 -6 -15 -4 -4 10 12 13 11 17 -1 25 -13 8 -6 13 14 10 4 0 7 3 7
9 0 6 7 10 15 10 9 0 18 7 21 15 4 8 12 15 19 15 8 0 30 16 51 35 20 19 39 33
42 31 2 -3 19 2 36 12 20 10 59 17 111 18 86 3 103 5 123 17 7 5 21 6 31 2 11
-3 22 -1 25 4 7 10 31 5 51 -10z m-1017 -208 c2 -12 -2 -28 -8 -36 -6 -8 -9
-18 -6 -24 3 -5 -7 -21 -24 -34 -30 -25 -41 -45 -18 -31 7 4 2 -6 -10 -23 -12
-17 -22 -35 -22 -41 0 -5 -8 -16 -17 -23 -9 -8 -14 -9 -10 -3 4 7 0 14 -8 18
-8 3 -15 15 -15 26 0 11 -4 20 -8 20 -8 0 -6 52 3 97 7 31 54 83 76 83 10 0
19 5 19 11 0 20 45 -17 48 -40z m1020 -498 c-10 -2 -26 -2 -35 0 -10 3 -2 5
17 5 19 0 27 -2 18 -5z m-11 -49 c-3 -3 -12 -4 -19 -1 -8 3 -5 6 6 6 11 1 17
-2 13 -5z m243 -44 c-20 -13 -33 -13 -25 0 3 6 14 10 23 10 15 0 15 -2 2 -10z
m-1481 -170 c0 -77 -2 -91 -11 -75 -27 46 -48 191 -31 209 4 4 15 -3 25 -16
14 -18 18 -42 17 -118z m685 80 c14 -27 26 -58 26 -68 0 -25 71 -170 102 -207
13 -16 39 -55 57 -85 18 -30 48 -71 66 -90 18 -19 55 -66 84 -103 45 -60 56
-69 52 -45 -9 73 -54 183 -77 192 -8 3 -14 12 -14 21 0 8 -5 15 -11 15 -5 0
-7 5 -4 10 5 8 11 7 21 0 22 -19 95 -2 124 30 19 20 42 30 90 39 92 18 125 36
143 79 17 39 38 112 32 112 -11 0 45 87 67 103 29 22 135 49 160 41 63 -19 52
-293 -17 -424 -7 -14 -13 -28 -13 -33 -1 -23 -15 -67 -22 -67 -12 0 -20 -39
-9 -46 5 -3 9 -11 9 -17 0 -8 -3 -8 -9 1 -6 10 -10 9 -14 -7 -3 -12 0 -21 6
-21 7 0 4 -5 -5 -11 -10 -5 -18 -19 -18 -30 0 -11 -7 -22 -15 -25 -8 -4 -13
-10 -10 -14 3 -4 -2 -10 -10 -14 -8 -3 -15 -1 -15 5 0 6 -5 7 -11 3 -8 -5 -4
-13 12 -26 13 -11 19 -17 12 -14 -6 4 -14 2 -18 -4 -3 -5 -1 -10 4 -10 6 0 11
-7 11 -16 0 -11 -5 -14 -16 -10 -11 4 -15 2 -11 -8 3 -8 -1 -29 -9 -46 -9 -17
-13 -37 -10 -45 7 -18 -10 -20 -18 -2 -5 9 -7 9 -12 -1 -3 -6 -10 -10 -15 -6
-5 3 -9 -3 -10 -13 0 -14 -3 -12 -10 6 -11 28 7 85 23 75 6 -4 2 6 -8 22 l-19
28 -9 -27 c-5 -14 -16 -29 -23 -32 -9 -3 -11 0 -6 8 4 6 -8 0 -26 -15 -18 -16
-39 -28 -47 -28 -8 0 -15 -4 -15 -10 -1 -5 -3 -14 -4 -20 -1 -5 -3 -14 -4 -20
0 -5 -6 -10 -12 -10 -5 0 -8 4 -5 9 3 5 -1 12 -10 15 -8 3 -13 10 -10 15 10
15 -23 107 -48 134 -13 14 -22 28 -19 31 3 2 -3 3 -14 2 -10 -2 -24 2 -32 8
-12 9 -13 8 -6 -4 8 -13 6 -13 -15 1 -14 8 -38 15 -55 14 -16 0 -33 4 -37 10
-5 6 -8 6 -8 -2 0 -9 -7 -10 -22 -4 -13 5 -26 9 -30 10 -5 1 -33 13 -63 27
-31 13 -60 22 -65 19 -6 -3 -10 -1 -10 5 0 5 -15 19 -32 30 -37 23 -36 23 50
20 34 -1 62 0 62 3 0 22 -18 38 -51 47 -48 13 -84 5 -131 -32 l-36 -28 -31 26
c-28 23 -51 87 -43 118 4 13 -9 46 -18 46 -4 0 -16 -20 -27 -45 -14 -35 -25
-47 -48 -54 -16 -4 -34 -4 -39 0 -6 5 15 58 51 131 33 68 70 152 82 188 12 36
30 79 41 95 34 51 38 59 44 78 9 28 23 20 50 -33z m486 10 c-18 -11 -22 -7
-14 14 5 13 10 14 18 6 8 -8 7 -13 -4 -20z m-308 -126 c67 -56 116 -78 173
-80 68 -3 95 9 95 41 0 14 6 25 13 25 7 0 34 18 61 40 26 22 54 40 61 40 7 0
27 3 45 7 l33 6 -6 -72 c-8 -95 -29 -131 -87 -149 -43 -12 -70 -12 -216 3 -40
4 -64 3 -69 -4 -18 -30 -108 4 -140 52 -24 36 -36 87 -22 87 9 0 9 2 1 8 -18
11 -54 75 -54 96 0 13 8 8 32 -21 18 -21 54 -57 80 -79z m298 96 c-8 -5 -22
-9 -30 -9 -10 0 -8 3 5 9 27 12 43 12 25 0z m-1090 -63 c0 -17 14 -46 35 -74
19 -25 32 -49 29 -54 -3 -5 0 -9 6 -9 7 0 9 -7 6 -16 -4 -9 -1 -23 6 -31 10
-13 6 -14 -28 -8 -21 4 -54 14 -73 21 l-33 14 6 72 c4 40 9 91 13 112 5 37 6
38 19 21 8 -10 14 -32 14 -48z m1720 3 c-10 -19 -30 -36 -30 -26 0 16 24 55
31 50 5 -3 5 -14 -1 -24z m7 -158 l22 -39 -33 -50 c-26 -40 -34 -64 -39 -119
-4 -38 -11 -70 -16 -72 -6 -2 -7 -10 -4 -18 3 -8 0 -20 -6 -28 -6 -7 -7 -17
-3 -22 4 -5 -3 -1 -15 10 -12 10 -27 15 -33 11 -6 -4 -3 10 6 32 13 28 53 278
64 393 0 3 8 -9 18 -27 9 -17 27 -49 39 -71z m-1665 -75 c5 -6 6 -20 4 -29 -3
-11 2 -18 11 -18 9 0 13 -6 9 -15 -3 -8 -1 -15 3 -15 5 0 7 -8 4 -19 -3 -12
-13 -18 -28 -17 -13 0 -21 4 -19 8 2 4 0 9 -5 12 -5 3 -12 -1 -15 -10 -7 -18
-26 -9 -26 13 0 9 -7 21 -16 28 -9 6 -18 32 -21 58 l-5 46 48 -15 c26 -8 52
-20 56 -27z m1555 -277 c-1 -22 -17 -28 -17 -7 0 12 9 27 16 27 2 0 2 -9 1
-20z m-172 -100 c3 -5 1 -10 -4 -10 -6 0 -11 5 -11 10 0 6 2 10 4 10 3 0 8 -4
11 -10z m-630 -184 c11 -7 31 -17 45 -21 14 -4 41 -21 60 -38 38 -34 45 -67
20 -107 -8 -13 -10 -21 -4 -17 7 4 15 0 18 -9 6 -15 9 -15 28 2 12 11 18 13
14 7 -9 -16 -1 -16 25 -3 13 8 19 7 19 0 0 -6 4 -9 9 -6 18 12 37 -5 35 -32
-2 -41 -2 -40 -31 -56 -16 -8 -27 -17 -25 -20 6 -15 0 -24 -19 -29 -12 -3 -18
-10 -14 -16 3 -6 0 -11 -8 -11 -7 0 -24 -11 -36 -24 -18 -19 -32 -24 -61 -23
-21 2 -37 -1 -34 -4 5 -9 -22 -19 -31 -11 -3 3 -18 7 -33 8 -15 1 -33 2 -40 3
-7 0 -17 13 -22 27 -6 14 -14 22 -20 19 -5 -3 -11 -1 -11 4 -1 6 -2 16 -3 21
0 6 -6 14 -12 18 -34 23 -5 92 39 92 35 0 106 31 110 49 5 21 -23 70 -43 76
-8 2 -35 7 -60 10 -102 13 -122 18 -127 32 -15 40 45 71 137 72 32 1 64 -5 75
-13z m744 -138 c-11 -30 -36 -72 -55 -93 -43 -49 -44 -30 -1 27 18 24 41 62
51 86 27 60 31 46 5 -20z m-998 -181 c-10 -9 -11 -8 -5 6 3 10 9 15 12 12 3
-3 0 -11 -7 -18z m-301 -1723 c0 -2 -7 -4 -15 -4 -8 0 -15 4 -15 10 0 5 7 7
15 4 8 -4 15 -8 15 -10z"/>
<path d="M10730 3624 c1 -21 19 -48 37 -51 16 -3 4 33 -18 53 -18 16 -19 16
-19 -2z"/>
<path d="M10760 3528 c-2 -110 -48 -252 -159 -483 -26 -55 -65 -136 -86 -180
-57 -120 -92 -144 -286 -195 -61 -16 -113 -31 -115 -32 -1 -2 29 -2 69 0 45 2
88 10 113 23 41 19 74 17 74 -5 0 -6 -14 -31 -31 -56 -16 -25 -48 -80 -69
-122 -22 -43 -47 -78 -56 -80 -13 -2 -24 -30 -43 -108 l-26 -104 -63 -19 c-51
-14 -73 -29 -122 -77 -35 -33 -69 -79 -82 -107 -11 -26 -24 -50 -28 -53 -4 -3
-15 -20 -24 -37 -15 -30 -15 -32 0 -26 28 10 2 -26 -65 -92 -34 -33 -61 -67
-61 -75 0 -9 15 -24 33 -33 17 -10 55 -35 82 -57 64 -52 110 -64 210 -57 170
12 318 93 385 211 33 57 41 90 10 38 -18 -29 -66 -59 -77 -48 -6 6 71 156 80
156 4 0 12 -10 17 -22 7 -17 8 -10 4 27 -3 28 -17 68 -29 90 -30 52 -113 130
-159 149 -20 8 -36 19 -36 23 0 9 56 111 292 535 120 216 214 415 259 549 24
71 29 103 28 175 0 93 -6 117 -26 122 -8 1 -13 -10 -13 -30z m-395 -1657 c-8
-26 -22 -57 -30 -67 -8 -11 -4 11 10 51 14 39 25 86 26 105 l2 35 4 -38 c2
-21 -3 -60 -12 -86z m-346 74 c18 -9 30 -25 34 -43 8 -40 87 -74 87 -38 0 23
19 29 51 16 53 -22 33 -73 -29 -74 -50 -1 -60 -10 -38 -35 26 -29 11 -41 -50
-41 -94 0 -154 47 -161 127 -7 69 9 103 47 103 17 0 44 -7 59 -15z m291 -50
c0 -24 -24 -44 -37 -31 -9 8 14 56 27 56 5 0 10 -11 10 -25z"/>
<path d="M10772 2938 c-35 -109 -44 -148 -37 -148 12 0 81 227 72 237 -3 2
-18 -38 -35 -89z"/>
<path d="M11392 2440 c0 -14 2 -19 5 -12 2 6 2 18 0 25 -3 6 -5 1 -5 -13z"/>
<path d="M10991 2414 c0 -11 3 -14 6 -6 3 7 2 16 -1 19 -3 4 -6 -2 -5 -13z"/>
<path d="M10811 2244 c-11 -24 -24 -129 -51 -399 -5 -55 -15 -192 -21 -305 -6
-113 -15 -227 -20 -254 -15 -81 -14 -86 27 -86 35 0 36 1 29 28 -13 49 -13 96
2 137 17 47 48 163 58 220 5 22 10 47 11 55 12 58 14 176 5 277 -6 65 -13 169
-16 232 -2 63 -6 115 -8 117 -2 2 -9 -8 -16 -22z"/>
<path d="M11235 1986 c-9 -14 -15 -33 -13 -43 3 -13 9 -7 21 21 20 46 16 58
-8 22z"/>
<path d="M7700 1907 c-70 -28 -95 -72 -95 -164 0 -72 20 -101 94 -134 25 -11
53 -27 62 -35 10 -9 26 -13 37 -10 12 4 25 -1 38 -15 19 -21 66 -49 82 -49 5
0 12 46 14 103 5 91 3 103 -13 115 -11 7 -19 21 -19 30 0 14 -2 14 -9 3 -10
-15 -31 -7 -31 12 0 7 6 23 13 37 27 53 27 58 -10 95 -42 42 -81 45 -163 12z
m136 -23 c22 -21 25 -31 19 -62 -10 -56 -27 -66 -20 -12 l6 45 -20 -37 c-20
-35 -43 -59 -40 -41 1 4 1 23 0 42 l-1 34 -56 -6 c-71 -7 -90 -23 -40 -32 43
-8 48 -25 8 -25 -40 0 -43 -7 -24 -47 13 -26 21 -33 37 -29 20 5 20 5 1 -9
-23 -18 -50 -19 -77 -5 -29 16 -24 68 11 123 54 86 144 114 196 61z"/>
<path d="M11158 1848 c-22 -21 -28 -37 -28 -68 0 -22 4 -40 10 -40 13 0 51 91
48 115 -3 19 -5 19 -30 -7z"/>
<path d="M7921 1833 c-1 -6 -4 -20 -7 -30 -5 -17 -5 -17 6 0 6 10 9 23 6 30
-3 9 -5 9 -5 0z"/>
<path d="M11443 1702 c-24 -53 -52 -123 -63 -156 -19 -55 -44 -115 -76 -179
-8 -16 -14 -33 -14 -39 0 -6 -14 -27 -30 -48 -17 -21 -39 -63 -49 -92 -33 -96
-88 -206 -109 -217 -11 -6 -26 -28 -33 -48 -6 -21 -15 -42 -19 -48 -4 -5 -10
-22 -14 -37 -8 -34 -34 -38 -30 -6 1 13 3 24 4 26 6 7 5 28 -2 38 -16 21 -20
103 -9 152 7 27 13 56 15 63 1 8 16 43 33 79 31 65 69 202 77 275 7 58 23 147
32 170 6 17 5 18 -7 7 -8 -7 -14 -16 -14 -20 -1 -16 -31 -52 -42 -52 -7 0 -13
-6 -13 -13 0 -8 -9 -22 -20 -32 -11 -10 -20 -13 -20 -7 0 7 -3 11 -7 11 -23
-4 -35 4 -53 34 l-20 32 0 -197 c0 -123 4 -198 10 -198 6 0 5 -9 -2 -25 -13
-29 -52 -44 -99 -38 -19 2 -48 5 -64 7 -17 1 -39 8 -50 13 -11 6 -40 11 -65
11 -58 1 -115 16 -135 35 -23 24 -83 33 -181 28 -8 -1 -13 -5 -10 -10 4 -5 -3
-7 -14 -4 -11 3 -20 10 -20 16 0 8 -4 7 -12 -1 -7 -7 -17 -8 -27 -3 -24 13
-109 22 -115 13 -3 -5 -21 -9 -41 -10 -31 -1 -37 2 -50 35 -18 44 -30 53 -67
53 -24 0 -28 -4 -29 -27 0 -20 -2 -23 -7 -12 -9 22 -52 7 -52 -19 0 -27 -68
-17 -99 15 -14 13 -32 23 -40 22 -9 -1 -42 1 -74 6 -51 6 -60 5 -72 -11 -29
-38 -19 -54 33 -54 117 -1 248 -13 262 -26 10 -9 20 -10 33 -3 21 12 21 6 2
-46 -8 -22 -14 -59 -15 -83 0 -25 -6 -50 -15 -58 -9 -9 -13 -25 -10 -37 3 -12
-1 -41 -9 -64 l-15 -42 44 -25 c54 -32 65 -33 37 -4 -29 32 -41 163 -18 193
l15 20 2 -20 c1 -16 2 -16 8 5 4 16 18 28 36 34 70 21 75 24 75 59 0 33 -1 34
-37 33 -36 -1 -38 0 -38 32 -1 27 3 32 22 32 13 0 26 -6 29 -14 3 -8 14 -13
25 -11 11 2 34 -2 52 -9 17 -7 73 -16 122 -19 50 -4 101 -9 115 -12 121 -29
323 -57 422 -59 65 -1 120 -5 123 -8 3 -3 -8 -42 -25 -87 -16 -45 -30 -94 -30
-108 0 -23 3 -25 29 -20 l30 6 -21 -47 c-14 -30 -22 -74 -24 -127 -10 -221
-17 -305 -24 -305 -4 0 -23 6 -42 14 -46 20 -70 6 -43 -24 11 -12 34 -28 51
-35 27 -11 32 -19 37 -61 7 -61 2 -238 -8 -281 l-7 -33 584 0 585 0 12 65 c12
66 2 145 -19 145 -5 0 -20 -21 -35 -47 -24 -45 -70 -83 -101 -83 -7 0 -31 9
-51 20 -24 12 -66 22 -110 24 -203 14 -266 79 -262 273 1 46 7 93 14 106 6 12
10 28 8 34 -2 6 3 41 12 78 8 37 12 72 9 77 -5 7 -2 8 6 3 10 -6 12 -4 7 7 -3
9 1 28 9 43 8 15 12 30 9 33 -3 3 -1 10 3 16 5 6 17 49 26 96 24 112 46 207
100 430 82 337 95 395 100 435 l6 40 -24 -52 c-28 -58 -175 -449 -201 -533 -9
-30 -20 -64 -25 -75 -5 -11 -32 -85 -59 -165 -27 -80 -64 -183 -81 -230 -17
-47 -36 -101 -42 -120 -6 -19 -21 -55 -33 -80 -13 -25 -30 -70 -39 -100 -18
-62 -57 -140 -69 -140 -5 0 -6 -4 -2 -9 3 -5 1 -12 -5 -16 -5 -3 -10 -22 -10
-41 0 -19 -4 -34 -9 -34 -4 0 -13 -19 -19 -42 l-11 -43 3 48 c4 48 -6 68 -21
45 -8 -14 -9 -18 -13 -45 -1 -15 -3 -15 -8 -3 -3 9 -10 -8 -17 -39 -5 -30 -16
-56 -23 -59 -6 -2 -12 1 -12 8 0 6 5 8 13 4 9 -6 8 -3 -1 8 -10 12 -12 37 -8
85 7 98 16 191 24 248 4 28 5 79 2 114 -3 43 -1 69 8 82 7 10 14 30 16 46 3
26 7 38 23 81 3 9 8 25 10 36 2 10 10 33 18 50 20 44 73 179 100 256 29 81 73
200 82 220 8 20 7 16 52 155 37 111 83 269 94 323 11 48 -10 17 -50 -76z
m-1456 -464 c-3 -8 -6 -5 -6 6 -1 11 2 17 5 13 3 -3 4 -12 1 -19z"/>
<path d="M10850 1342 c-12 -38 -20 -86 -18 -108 3 -34 6 -39 31 -42 l27 -3 0
105 c0 58 -4 107 -9 110 -5 3 -18 -25 -31 -62z"/>
<path d="M10479 1318 c-18 -72 -18 -71 19 -79 l32 -6 0 43 c0 47 -14 94 -29
94 -5 0 -15 -24 -22 -52z"/>
<path d="M10588 1280 c-2 -33 1 -50 8 -50 16 0 24 24 24 66 0 22 -5 34 -14 34
-10 0 -15 -15 -18 -50z"/>
<path d="M9622 1190 c0 -14 2 -19 5 -12 2 6 2 18 0 25 -3 6 -5 1 -5 -13z"/>
<path d="M12029 993 c-4 -25 -8 -53 -12 -94 -2 -25 -7 -51 -11 -57 -4 -7 -2
-12 6 -12 8 0 9 -3 3 -8 -5 -4 -10 -18 -10 -32 0 -30 -6 -72 -30 -200 -19
-108 -25 -159 -17 -178 2 -7 18 -20 35 -28 37 -20 42 -13 52 70 15 125 18 164
18 281 0 139 -4 194 -17 214 -6 10 -6 12 2 7 7 -4 12 -1 12 9 0 9 -4 13 -10
10 -6 -3 -7 1 -4 9 3 9 1 16 -5 16 -6 0 -12 -3 -12 -7z"/>
<path d="M9602 935 c0 -16 2 -22 5 -12 2 9 2 23 0 30 -3 6 -5 -1 -5 -18z"/>
<path d="M11010 950 c0 -5 7 -7 15 -4 8 4 15 8 15 10 0 2 -7 4 -15 4 -8 0 -15
-4 -15 -10z"/>
<path d="M7313 913 c-7 -2 -13 -11 -13 -19 0 -18 -5 -18 -69 2 -55 16 -81 14
-81 -8 0 -12 89 -154 107 -170 4 -4 24 -23 45 -41 l36 -33 12 58 c13 57 7 128
-10 128 -5 0 -7 7 -4 15 4 8 1 15 -6 15 -10 0 -10 3 0 15 10 12 9 15 -5 15
-14 0 -15 3 -5 15 13 16 13 16 -7 8z"/>
<path d="M9470 780 c-7 -16 -11 -59 -9 -97 2 -37 -1 -107 -5 -154 -4 -47 -9
-114 -11 -150 -4 -104 -26 -300 -36 -326 -12 -31 -12 -53 0 -53 13 0 17 14 46
185 14 83 30 220 35 305 5 85 12 192 16 238 6 70 5 82 -8 82 -9 0 -21 -13 -28
-30z"/>
<path d="M7230 585 c-41 -14 -112 -32 -157 -41 -45 -9 -84 -22 -86 -29 -3 -6
-8 -43 -11 -81 -3 -38 -3 -61 0 -51 3 9 9 17 12 17 4 0 32 -23 61 -50 30 -28
59 -50 64 -50 18 0 98 -62 94 -73 -5 -16 -35 -16 -74 0 -27 11 -34 10 -46 -2
-8 -8 -17 -11 -21 -8 -3 4 -6 2 -6 -4 0 -5 -11 -15 -24 -21 -18 -8 -30 -7 -51
4 -15 8 -29 14 -31 14 -2 0 -4 -47 -4 -105 l0 -105 170 0 171 0 -2 88 c0 48 6
159 16 247 30 291 29 275 14 275 -8 -1 -48 -12 -89 -25z"/>
<path d="M7772 577 c-1 -10 -7 -27 -12 -38 -9 -16 -15 -17 -31 -8 -16 8 -28 7
-54 -5 -44 -21 -53 -46 -23 -69 13 -10 31 -25 41 -33 11 -9 25 -13 33 -10 25
10 56 92 51 139 -2 23 -4 34 -5 24z"/>
<path d="M7610 550 c0 -11 5 -20 10 -20 6 0 10 9 10 20 0 11 -4 20 -10 20 -5
0 -10 -9 -10 -20z"/>
<path d="M11126 262 c-2 -4 -1 -14 4 -22 7 -11 9 -9 7 8 -1 24 -3 26 -11 14z"/>
<path d="M9674 178 c-12 -14 -14 -18 -4 -13 13 8 13 7 1 -8 -7 -9 -10 -17 -6
-17 4 0 2 -7 -5 -15 -7 -8 -10 -15 -8 -15 3 0 0 -25 -7 -55 l-13 -55 69 0 c59
0 69 3 70 18 2 23 3 32 12 69 11 42 -4 68 -52 93 l-39 19 -18 -21z"/>
</g>
</svg>
